<?xml version="1.0" encoding="utf-8"?>

<!DOCTYPE svg PUBLIC "-//W3C//DTD SVG 1.1//EN" "http://www.w3.org/Graphics/SVG/1.1/DTD/svg11.dtd">
<!-- Uploaded to: SVG Repo, www.svgrepo.com, Generator: SVG Repo Mixer Tools -->
<svg version="1.1" id="_x32_" xmlns="http://www.w3.org/2000/svg" xmlns:xlink="http://www.w3.org/1999/xlink" 
	 width="800px" height="800px" viewBox="0 0 512 512"  xml:space="preserve">
<style type="text/css">
<![CDATA[
	.st0{fill:#000000;}
]]>
</style>
<g>
	<path class="st0" d="M481.344,162.656c-8.672-14.734-19.266-27.875-31.672-38.531c-12.391-10.688-26.641-18.875-42.375-23.406
		C376.375,91.844,349.172,82.813,331.578,72c-8.828-5.344-15.109-10.938-18.953-16.531c-3.813-5.641-5.719-11.156-5.781-18.969
		c0-0.75,0-1.234,0-1.563l0.047-0.906c0.031-0.75,0.031-1.5,0.031-3.219V0h-34.344v30.813c0,0.781,0,1.313-0.016,1.688
		c-0.031,0.594-0.031,0.859-0.047,1.109c-0.016,0.734-0.016,1.359-0.016,2.891c-0.063,14.344,4.313,27.719,11.891,38.531
		c11.422,16.313,28.453,27.094,47.844,36c19.484,8.875,41.859,15.844,65.547,22.672c10.422,3,20.344,8.578,29.5,16.453
		c13.734,11.781,25.594,28.844,33.875,48.875c8.313,20.031,13.016,42.969,13,66.156c0,28.688-7.125,57.594-22.938,82.656
		c-21.766,34.438-47.703,56.281-75.344,69.969c-27.656,13.641-57.281,19.016-85.969,19.031c-23.859,0-47-3.75-67.313-9.406
		c-20.266-5.594-37.719-13.156-49.906-20.313c-4.844-2.828-11.063-6.344-17.938-9.344c-3.469-1.5-7.094-2.891-10.969-3.969
		c-3.875-1.063-8-1.844-12.625-1.859c-2.688,0-5.547,0.297-8.563,1.094c-4.469,1.172-9.313,3.75-12.969,7.703
		c-3.719,3.906-6.047,8.75-7.25,13.531l0.016-0.031c-2.281,8.938-3.781,18.594-4.922,29.141
		c-1.297,12.078-1.969,25.516-1.969,40.359v0.281v0.281V512h34.344v-28.125v-0.125c0-13.797,0.625-26.047,1.766-36.703
		c0.813-7.609,1.844-14.328,3.078-20.109c2.703,0.719,6.313,2.188,9.969,4c3.688,1.813,7.406,3.906,10.688,5.844
		c15.266,8.891,35.094,17.359,58.063,23.75c22.969,6.375,49.063,10.625,76.5,10.641c32.938,0,67.938-6.172,101.156-22.563
		c33.203-16.328,64.375-43,89.188-82.453c19.703-31.25,28.25-66.656,28.25-100.969C508.469,228.125,498.656,192.156,481.344,162.656
		z"/>
	<path class="st0" d="M148.594,311.031c37.313,0.016,68.844-11.969,91.219-30.719c22.328-18.656,35.813-44.313,35.875-71.078
		c0-7.328-1.031-14.688-3.172-21.859c-1.719-5.609-3.016-12.703-5.906-20.781c-1.453-4.031-3.406-8.313-6.234-12.531
		c-2.813-4.188-6.531-8.281-11.141-11.672c-7.203-5.328-13.266-11.188-17.766-17.234l-0.031-0.031
		c-2.672-3.594-5-7.344-6.969-11.156c-2.25-4.375-4.047-8.844-5.5-13.359c-1.656-5.172-2.875-10.359-3.75-15.516
		c-1-5.906-1.594-11.781-1.938-17.594c-0.406-6.625-0.484-13.125-0.484-19.438c0-5.953,0.078-11.719,0.078-17.25V0h-34.344v30.813
		c0,5.188-0.078,10.969-0.078,17.25c0,6.656,0.094,13.844,0.547,21.5c0.406,6.719,1.094,13.844,2.375,21.297
		c1.109,6.516,2.656,13.297,4.906,20.266c1.969,6.125,4.469,12.344,7.656,18.563c2.813,5.422,6.125,10.813,10.016,16l-0.016-0.016
		c6.969,9.328,15.484,17.328,24.844,24.297c1.344,1,2.203,1.953,3.094,3.234c1.281,1.891,2.5,4.766,3.688,8.859
		c1.188,4.078,2.313,9.25,4.031,15.125c1.188,3.922,1.75,7.938,1.75,12.047c0.047,14.859-7.75,31.516-23.563,44.766
		c-15.766,13.172-39.203,22.688-69.188,22.703c-28.375,0.031-51.688,10.953-68.219,22.031c-8.297,5.547-15,11.219-19.984,15.844
		c-2.484,2.297-4.547,4.359-6.141,6c-1.563,1.609-2.75,2.922-3.125,3.297c-9,9.5-16.578,20.281-22.75,31.969
		c-4.609,8.75-8.469,18-11.625,27.688c-4.75,14.516-8,30.031-10.141,46.656C4.484,446.844,3.5,464.703,3.5,484.031V512h34.344
		v-27.969c0-18.156,0.922-34.578,2.828-49.484c1.891-14.922,4.766-28.281,8.719-40.344c2.609-8.016,5.734-15.453,9.359-22.328
		c4.813-9.156,10.594-17.313,17.297-24.375c0.766-0.797,1.578-1.688,2.859-3.031c4.375-4.5,13.406-13.125,25.594-20.375
		C116.719,316.813,131.734,311.031,148.594,311.031z"/>
</g>
</svg>