<svg width="12" height="21" viewBox="0 0 12 21" fill="none" xmlns="http://www.w3.org/2000/svg">
<path d="M8.81608 17.475L8.75379 17.4969ZM8.81608 17.475L8.6915 17.5187ZM8.81608 17.475C9.65972 17.179 10.1195 16.2699 9.8582 15.4146L9.59448 14.5526M8.75379 17.4969L8.6915 17.5187ZM8.75379 17.4969L9.58152 19.8558ZM8.6915 17.5187C7.84782 17.8146 6.92039 17.3921 6.59023 16.561L6.25753 15.723M9.59448 14.5526L6.25753 15.723ZM9.59448 14.5526C9.97576 14.4189 10.1769 14.0008 10.0432 13.619L7.25181 5.66014C6.94735 4.79147 5.99567 4.33451 5.12745 4.63899L3.55429 5.19076C2.68609 5.4953 2.22881 6.44642 2.53328 7.31512L5.32487 15.2744C5.45845 15.656 5.87629 15.8567 6.25753 15.723M3.51365 2.55587L4.34046 4.91525ZM3.51365 2.55587L1.1544 3.38339ZM3.51365 2.55587L5.87292 1.72839Z" fill="black"/>
<path d="M8.81608 17.475L8.75379 17.4969M8.81608 17.475L8.6915 17.5187M8.81608 17.475C9.65972 17.179 10.1195 16.2699 9.8582 15.4146L9.59448 14.5526M8.75379 17.4969L8.6915 17.5187M8.75379 17.4969L9.58152 19.8558M8.6915 17.5187C7.84782 17.8146 6.92039 17.3921 6.59023 16.561L6.25753 15.723M9.59448 14.5526L6.25753 15.723M9.59448 14.5526C9.97576 14.4189 10.1769 14.0008 10.0432 13.619L7.25181 5.66014C6.94735 4.79147 5.99567 4.33451 5.12745 4.63899L3.55429 5.19076C2.68609 5.4953 2.22881 6.44642 2.53328 7.31512L5.32487 15.2744C5.45845 15.656 5.87629 15.8567 6.25753 15.723M3.51365 2.55587L4.34046 4.91525M3.51365 2.55587L1.1544 3.38339M3.51365 2.55587L5.87292 1.72839" stroke="#88E788" stroke-width="2" stroke-linecap="round" stroke-linejoin="round"/>
</svg>
