<svg width="120" height="32" viewBox="0 0 120 32" fill="none" xmlns="http://www.w3.org/2000/svg">
<g clip-path="url(#clip0_3321_93)">
<mask id="mask0_3321_93" style="mask-type:luminance" maskUnits="userSpaceOnUse" x="0" y="0" width="120" height="32">
<path d="M120 0H0V32H120V0Z" fill="white"/>
</mask>
<g mask="url(#mask0_3321_93)">
<path d="M0 19.6922V3.7869C0 2.84016 0.39538 1.89341 0.98846 1.32535C1.58154 0.56797 2.37232 0.18927 3.55848 0.18927C4.74464 0.18927 5.53542 0.56797 6.1285 1.13601C6.72158 1.70405 7.11696 2.6508 7.11696 3.59754V20.2602C7.11696 24.2366 9.2916 26.3194 13.6409 26.3194C17.9901 26.3194 20.1648 24.2366 20.1648 20.2602V3.7869C20.1648 2.84016 20.5602 1.89341 21.1532 1.32535C21.7462 0.75731 22.7348 0.37861 23.7232 0.37861C24.9094 0.37861 25.7002 0.75731 26.2932 1.32535C26.8864 1.89341 27.2818 2.84016 27.2818 3.7869V19.8816C27.2818 23.8578 26.0956 26.8874 23.7232 28.9704C21.351 31.0532 17.9901 32 13.6409 32C9.2916 32 5.9308 31.0532 3.55848 28.9704C1.18616 26.8874 0 23.8578 0 19.6922Z" fill="#88E788"/>
<path d="M33.0118 28.213V3.59754C33.0118 2.6508 33.4072 1.70405 34.0002 1.13601C34.5932 0.56797 35.5818 0.18927 36.5702 0.18927C37.7564 0.18927 38.5472 0.56797 39.1402 1.13601C39.7332 1.70405 40.1286 2.6508 40.1286 3.59754V13.633L51.3972 1.70405C51.9904 1.13601 52.3856 0.75731 52.781 0.56797C53.1764 0.37861 53.7696 0.18927 54.165 0.18927C55.1534 0.18927 55.9442 0.37861 56.5372 0.94665C57.1304 1.51471 57.5258 2.08276 57.5258 3.02948C57.5258 3.78688 57.1304 4.5443 56.3396 5.3017L49.0248 12.6863L57.7234 25.3726C57.7234 25.3726 57.9212 25.562 57.9212 25.7514C58.1188 25.9408 58.1188 26.13 58.1188 26.13C58.1188 26.13 58.3164 26.3194 58.3164 26.5088C58.5142 26.6982 58.5142 26.8874 58.5142 26.8874C58.5142 26.8874 58.5142 27.0768 58.7118 27.2662C58.9096 27.4556 58.9096 27.6448 58.9096 27.6448C58.9096 27.8342 58.9096 27.8342 58.9096 28.0236C58.9096 28.5916 58.7118 29.1596 58.5142 29.5384C58.3164 29.917 57.9212 30.2958 57.7234 30.4852C57.328 30.6744 56.9326 30.8638 56.5372 31.0532C56.1418 31.2426 55.7464 31.2426 55.1534 31.2426C54.3626 31.2426 53.7696 31.0532 53.3742 30.8638C52.9788 30.6744 52.3856 30.1064 51.9902 29.349L43.6872 17.0413L39.7332 20.8284V27.6448C39.7332 28.5916 39.338 29.5384 38.7448 30.1064C38.1518 30.6744 37.1632 31.0532 36.1748 31.0532C34.9886 31.0532 34.1978 30.6744 33.6048 30.1064C33.4072 30.1064 33.0118 29.349 33.0118 28.213Z" fill="#88E788"/>
<path d="M60.6914 15.5264C60.6914 12.4969 61.284 9.84598 62.4692 7.57378C63.6544 5.3016 65.4322 3.4081 68 2.08266C70.3704 0.757216 73.3334 -0.000183105 76.6914 -0.000183105C79.2594 -0.000183105 81.4322 0.378516 83.605 1.13592C85.5802 1.89332 87.358 3.0294 88.7408 4.35484C90.1236 5.6803 91.1112 7.38444 91.7038 9.27792C92.4938 11.1714 92.6914 13.2543 92.6914 15.5264C92.6914 17.2306 92.4938 18.9347 92.0988 20.4496C91.7038 21.9642 91.1112 23.479 90.1236 24.9938C89.1358 26.5086 88.1482 27.6448 86.963 28.5916C85.7778 29.5382 84.1976 30.485 82.4198 31.053C80.642 31.6212 78.6668 31.9998 76.6914 31.9998C74.5186 31.9998 72.5432 31.8104 70.7654 31.2424C68.9878 30.6744 67.4074 29.917 66.2222 28.9702C65.037 28.0234 64.0494 26.8874 63.0618 25.3726C62.2716 24.0472 61.679 22.5324 61.284 20.8282C60.889 19.1241 60.6914 17.4199 60.6914 15.5264ZM67.8026 15.5264C67.8026 17.0412 68 18.3667 68.1976 19.6921C68.3952 21.0176 68.9878 21.9642 69.5802 23.1004C70.1728 24.0472 71.1606 24.9938 72.3458 25.3726C73.531 25.9406 74.9136 26.13 76.4938 26.13C77.679 26.13 78.8642 25.9406 79.8518 25.562C80.8396 25.1832 81.6296 24.6152 82.4198 24.0472C83.0124 23.479 83.605 22.5324 84 21.775C84.3952 21.0176 84.7902 19.8815 84.9876 18.9347C85.1852 17.988 85.1852 16.8519 85.1852 15.5264C85.1852 12.4969 84.3952 10.0353 83.0124 8.33118C81.4322 6.4377 79.2594 5.6803 76.4938 5.6803C74.5186 5.6803 72.9384 6.059 71.5556 7.00574C70.1728 7.95248 69.3828 8.89922 68.7902 10.414C68.1976 11.9288 67.8026 13.633 67.8026 15.5264Z" fill="#88E788"/>
<path d="M96.871 27.0768V3.7869C96.871 2.84016 97.2664 1.89341 97.8596 1.32535C98.4526 0.56797 99.4412 0.18927 100.43 0.18927C101.616 0.18927 102.407 0.56797 103 1.13601C103.593 1.70405 103.988 2.6508 103.988 3.59754V25.1834H116.245C117.234 25.1834 118.222 25.3726 119.013 25.9408C119.804 26.5088 120.001 27.2662 120.001 28.0236C120.001 28.781 119.606 29.7278 119.013 30.1064C118.222 30.6744 117.431 30.8638 116.245 30.8638H101.22C99.8366 30.8638 98.848 30.4852 98.0572 29.917C97.2664 29.5384 96.871 28.5916 96.871 27.0768Z" fill="#88E788"/>
<path d="M112.389 18.3328L112.323 18.332ZM112.389 18.3328L112.257 18.3312ZM112.389 18.3328C113.283 18.3432 114.026 17.6461 114.073 16.753L114.12 15.8528M112.323 18.332L112.257 18.3312ZM112.323 18.332L112.294 20.8318ZM112.257 18.3312C111.363 18.3207 110.636 17.6065 110.61 16.7126L110.584 15.8113M114.12 15.8528L110.584 15.8113ZM114.12 15.8528C114.524 15.8576 114.856 15.5335 114.861 15.129L114.96 6.6954C114.971 5.77499 114.233 5.02009 113.313 5.00926L111.646 4.9897C110.726 4.97893 109.971 5.7163 109.96 6.63674L109.861 15.0708C109.856 15.4751 110.18 15.8066 110.584 15.8113M112.509 2.49982L112.479 4.99969ZM112.509 2.49982L110.009 2.47052ZM112.509 2.49982L115.009 2.52916Z" fill="#88E788"/>
<path d="M112.389 18.3328L112.323 18.332M112.389 18.3328L112.257 18.3312M112.389 18.3328C113.283 18.3432 114.026 17.6461 114.073 16.753L114.12 15.8528M112.323 18.332L112.257 18.3312M112.323 18.332L112.294 20.8318M112.257 18.3312C111.363 18.3207 110.636 17.6065 110.61 16.7126L110.584 15.8113M114.12 15.8528L110.584 15.8113M114.12 15.8528C114.524 15.8576 114.856 15.5335 114.861 15.129L114.96 6.6954C114.971 5.77499 114.233 5.02009 113.313 5.00926L111.646 4.9897C110.726 4.97893 109.971 5.7163 109.96 6.63674L109.861 15.0708C109.856 15.4751 110.18 15.8066 110.584 15.8113M112.509 2.49982L112.479 4.99969M112.509 2.49982L110.009 2.47052M112.509 2.49982L115.009 2.52916" stroke="#88E788" stroke-width="2" stroke-linecap="round" stroke-linejoin="round"/>
</g>
</g>
<defs>
<clipPath id="clip0_3321_93">
<rect width="120" height="32" fill="white"/>
</clipPath>
</defs>
</svg>
