<?xml version="1.0" encoding="utf-8"?>

<!DOCTYPE svg PUBLIC "-//W3C//DTD SVG 1.1//EN" "http://www.w3.org/Graphics/SVG/1.1/DTD/svg11.dtd">
<!-- Uploaded to: SVG Repo, www.svgrepo.com, Generator: SVG Repo Mixer Tools -->
<svg height="800px" width="800px" version="1.1" id="_x32_" xmlns="http://www.w3.org/2000/svg" xmlns:xlink="http://www.w3.org/1999/xlink" 
	 viewBox="0 0 512 512"  xml:space="preserve">
<style type="text/css">
	.st0{fill:#000000;}
</style>
<g>
	<path class="st0" d="M195.648,441.616c0,6.97,5.66,12.63,12.631,12.63h35.346V512h24.75v-57.755h35.34
		c6.964,0,12.63-5.659,12.63-12.63v-24.507H195.648V441.616z"/>
	<path class="st0" d="M389.248,51.984h-89.6c0.426-2.478,0.695-5.023,0.695-7.633C300.344,19.85,280.494,0,256,0
		s-44.344,19.85-44.344,44.35c0,2.61,0.269,5.155,0.695,7.633h-89.599c-13.568,0-24.559,11.004-24.559,24.566v199.278
		c0,19.096,7.784,37.366,21.549,50.594L203.4,406.8h105.2l83.658-80.379c13.765-13.228,21.549-31.498,21.549-50.594V76.549
		C413.807,62.988,402.816,51.984,389.248,51.984z M256,22.697c11.961,0,21.654,9.692,21.654,21.654c0,2.702-0.557,5.253-1.456,7.633
		h-40.396c-0.898-2.38-1.456-4.932-1.456-7.633C234.346,32.389,244.038,22.697,256,22.697z M139.035,105.613h49.505v16.5h-49.505
		V105.613z M139.035,144.816h49.505v16.499h-49.505V144.816z M139.035,184.012h49.505v16.5h-49.505V184.012z M372.965,275.828
		c0,7.935-3.279,15.647-9.004,21.135l-71.8,68.995h-72.32l-71.795-68.988c-5.731-5.495-9.01-13.207-9.01-21.142v-42.311h233.93
		V275.828z"/>
</g>
</svg>