<?xml version="1.0" encoding="utf-8"?>

<!DOCTYPE svg PUBLIC "-//W3C//DTD SVG 1.1//EN" "http://www.w3.org/Graphics/SVG/1.1/DTD/svg11.dtd">
<!-- Uploaded to: SVG Repo, www.svgrepo.com, Generator: SVG Repo Mixer Tools -->
<svg height="800px" width="800px" version="1.1" id="_x32_" xmlns="http://www.w3.org/2000/svg" xmlns:xlink="http://www.w3.org/1999/xlink" 
	 viewBox="0 0 512 512"  xml:space="preserve">
<style type="text/css">
	.st0{fill:#000000;}
</style>
<g>
	<circle class="st0" cx="324.674" cy="346.817" r="16.517"/>
	<path class="st0" d="M395.48,291.219c-4.671-9.84-9.272-18.292-12.517-24.957c-1.626-3.323-2.904-6.2-3.684-8.407
		c-0.794-2.181-1.013-3.704-0.988-3.975l0.006-0.078v0.019c0.116-1.522,0.433-2.187,0.774-2.742
		c0.348-0.536,0.839-1.026,1.678-1.556c0.91-0.561,1.504-0.819,1.942-0.987l1.38,0.729l3.613-0.852
		c7.633-1.814,13.02-8.614,13.027-16.473v-17.369c-0.007-13.233-10.717-23.944-23.95-23.95H265.385h-49.321
		c-2.922-11.994-10.988-36.087-32.602-65.406c-4.117-5.555-11.653-14.053-21.332-21.731c-4.839-3.813-10.194-7.4-16.04-10.142
		c-5.846-2.723-12.239-4.665-19.111-4.678c-5.716-0.026-11.762,1.471-17.15,4.832c-4.433,2.736-7.632,6.749-9.588,11.026
		c-1.975,4.297-2.82,8.885-2.826,13.46c0.013,5.53,1.246,11.085,3.73,16.253c2.484,5.149,6.291,9.943,11.53,13.44
		c11.795,7.852,22.899,17.511,31.054,27.196c4.607,5.4,8.142,10.814,10.536,15.75h-0.271c-13.227,0.007-23.937,10.717-23.944,23.95
		v17.305c0,7.93,5.497,14.776,13.207,16.512l3.84,0.871l1.097-0.652c0.419,0.174,0.89,0.367,1.612,0.787
		c0.929,0.548,1.472,1.064,1.846,1.62c0.355,0.568,0.697,1.232,0.819,2.826v0.026c0.032,0.251-0.18,1.787-0.987,3.988
		c-1.361,3.884-4.258,9.697-7.832,16.634c-10.698,20.93-27.441,52.514-27.474,91.918c0,2.555,0.071,5.149,0.22,7.762
		c1.884,33.099,13.401,67.432,37.674,93.821c24.228,26.422,61.315,44.1,111.313,44.01c49.991,0.09,87.078-17.588,111.306-44.01
		c24.273-26.39,35.79-60.722,37.68-93.821c0.142-2.62,0.213-5.207,0.213-7.756C414.578,336.391,404.823,310.905,395.48,291.219z
		 M380.892,214.574v14.105c-3.187,0.413-6.787,1.632-10.575,3.994c-0.684,0.419-1.342,1.039-2.02,1.548h-25.189v-23.776h33.655
		C379.04,210.451,380.885,212.29,380.892,214.574z M290.91,231.788c3.052,0,5.884,0.916,8.297,2.432h-16.595
		C285.032,232.704,287.858,231.788,290.91,231.788z M123.67,131.186c-1.917-1.278-3.53-3.188-4.678-5.568
		c-1.149-2.362-1.762-5.136-1.756-7.633c0-2.064,0.413-3.904,1.007-5.175c0.612-1.29,1.271-1.981,2.019-2.458
		c2.188-1.33,4.194-1.839,6.717-1.865c2.981-0.013,6.697,0.922,10.704,2.807c6.006,2.794,12.466,7.632,17.846,12.614
		c5.388,4.955,9.808,10.111,11.982,13.066c13.995,19.002,21.621,35.319,25.751,46.733c0.838,2.316,1.496,4.368,2.07,6.259h-20.001
		c-3.11-9.749-9.046-19.014-16.453-27.874C149.233,150.671,136.89,140.012,123.67,131.186z M149.872,228.64v-14.066
		c0.007-2.284,1.852-4.123,4.123-4.129h89.743v23.776h-81.265c-0.903-0.684-1.8-1.438-2.716-1.968
		C156.182,230.175,152.865,229.039,149.872,228.64z M394.577,373.045c-1.652,29.371-11.943,59.276-32.461,81.511
		c-20.563,22.202-51.25,37.532-96.731,37.622c-45.482-0.09-76.174-15.421-96.738-37.622c-20.518-22.228-30.803-52.14-32.454-81.511
		c-0.13-2.238-0.194-4.452-0.194-6.639c-0.006-25.648,8.388-48.159,17.188-66.69c4.4-9.272,8.872-17.485,12.434-24.77
		c1.78-3.658,3.336-7.078,4.542-10.459c1.18-3.394,2.103-6.742,2.129-10.62l-0.038-1.348l-0.007-0.02
		c-0.11-1.755-0.438-3.432-0.865-5.065h72.355v10.188c0,8.653,7.072,15.66,15.724,15.66c8.652,0,15.724-7.007,15.724-15.66v-10.111
		c0-0.026,0.006-0.051,0.006-0.077h31.435c0,0.026,0.006,0.052,0.006,0.077v43.146c0,10.04,8.13,18.234,18.241,18.234
		c10.04,0,18.234-8.194,18.234-18.234v-43.223h16.266c-0.42,1.62-0.742,3.297-0.852,5.039l-0.052,1.394
		c0.032,3.884,0.949,7.226,2.13,10.62c2.116,5.891,5.291,12.039,8.884,19.059c10.794,20.938,25.312,49.204,25.28,82.865
		C394.764,368.6,394.706,370.814,394.577,373.045z"/>
	<path class="st0" d="M358.522,252.435l-0.007,0.084c0-0.02,0.007-0.032,0.007-0.046v-0.019V252.435z"/>
	<path class="st0" d="M276.502,154.124c7.588,0,13.737-6.149,13.737-13.737c0-7.575-6.149-13.724-13.737-13.724
		c-7.582,0-13.73,6.149-13.73,13.724C262.772,147.974,268.92,154.124,276.502,154.124z"/>
	<path class="st0" d="M244.79,108.668c10.678,0,19.331-8.659,19.331-19.331C264.12,78.652,255.468,70,244.79,70
		c-10.692,0-19.343,8.652-19.343,19.337C225.446,100.008,234.098,108.668,244.79,108.668z"/>
	<path class="st0" d="M304.272,49.501c13.678,0,24.764-11.085,24.764-24.751C329.036,11.085,317.95,0,304.272,0
		c-13.665,0-24.744,11.085-24.744,24.75C279.528,38.416,290.607,49.501,304.272,49.501z"/>
</g>
</svg>