<?xml version="1.0" ?>
<!-- Uploaded to: SVG Repo, www.svgrepo.com, Generator: SVG Repo Mixer Tools -->
<svg width="800px" height="800px" viewBox="0 0 64 64" xmlns="http://www.w3.org/2000/svg">
<defs>
<style>.cls-1{fill:none;stroke:#000000;stroke-linejoin:round;stroke-width:2px;}</style>
</defs>
<title/>
<g data-name="Layer 6" id="Layer_6">
<circle class="cls-1" cx="32" cy="32" r="30"/>
<path class="cls-1" d="M45,42l6.82,6.82A26,26,0,0,0,15.18,12.18L45,42"/>
<path class="cls-1" d="M12.18,15.18A26,26,0,0,0,48.82,51.82Z"/>
<polyline class="cls-1" points="39 36 39 28 35 24 35 13 29 13 29 24 28 25"/>
<polyline class="cls-1" points="25 28 25 51 39 51 39 42"/>
<line class="cls-1" x1="29" x2="35" y1="19" y2="19"/>
<line class="cls-1" x1="39" x2="25" y1="45" y2="45"/>
<line class="cls-1" x1="36" x2="39" y1="33" y2="33"/>
<line class="cls-1" x1="30" x2="25" y1="33" y2="33"/>
</g>
</svg>