<svg width="140" height="121" xmlns="http://www.w3.org/2000/svg" fill="none">
 <defs>
  <filter color-interpolation-filters="sRGB" filterUnits="userSpaceOnUse" height="40.8976" width="42.7794" y="1.49798" x="0.38372" id="filter0_f_570_7223">
   <feGaussianBlur result="effect1_foregroundBlur_570_7223" stdDeviation="2.63333"/>
  </filter>
  <filter color-interpolation-filters="sRGB" filterUnits="userSpaceOnUse" height="44.3293" width="44.61" y="0.11002" x="92.9948" id="filter1_f_570_7223">
   <feGaussianBlur result="effect1_foregroundBlur_570_7223" stdDeviation="3.29167"/>
  </filter>
  <linearGradient y2="1.19402" x2="0.96443" y1="-0.0468" x1="1.07307" id="paint0_linear_570_7223">
   <stop stop-color="#00AEEF"/>
   <stop stop-color="#ED1C24" offset="0.56599"/>
   <stop stop-color="#F0F0F5" offset="1"/>
  </linearGradient>
 </defs>
 <g>
  <title>Layer 1</title>
  <path id="svg_1" fill="#88e788" d="m70.1419,21.6687c0,0 12.2306,-17.62604 30.5621,-18.39596c22.955,-0.9615 38.285,15.56246 39.247,34.09916c0.948,18.3211 -12.034,34.7547 -22.499,45.9163c-14.227,15.1709 -35.6414,30.5678 -48.1386,37.7058c-12.3779,-7.295 -33.5321,-22.9638 -47.5037,-38.3132c-10.275,-11.2921 -22.98626,-27.8939 -21.72239,-46.1997c1.26717,-18.5214 16.87099,-34.85049 39.80139,-33.59695c18.3248,1.00411 30.2532,18.78455 30.2532,18.78455z"/>
  <path id="svg_2" fill-opacity="0.3" fill="url(#paint0_linear_570_7223)" d="m131.732,65.166c-4.248,6.917 -9.513,13.065 -14.26,18.1282c-14.228,15.1709 -35.6417,30.5678 -48.1389,37.7058c-5.0088,-2.952 -11.4548,-7.275 -18.2804,-12.394c30.7501,-7.246 49.6593,-20.2879 80.6793,-43.44z" clip-rule="evenodd" fill-rule="evenodd"/>
  <g id="svg_3" filter="url(#filter0_f_570_7223)" opacity="0.4">
   <path id="svg_4" fill="#007f3f" d="m6.91342,36.51744c-1.22821,-1.1174 -1.78992,-2.7693 -1.39992,-4.3508c3.47229,-14.0809 10.81346,-20.886 25.74436,-24.94436c1.9305,-0.52474 3.9935,0.01754 5.4504,1.343l0,0c1.8496,1.68267 0.7638,4.70496 -1.7487,5.10586c-14.2656,2.2758 -20.1313,7.7034 -22.2123,20.7642c-0.423,2.6547 -3.80434,3.9284 -5.83384,2.0821l0,0z"/>
  </g>
  <g id="svg_5" filter="url(#filter1_f_570_7223)" opacity="0.4">
   <path id="svg_6" fill="#007f3f" d="m100.39,8.30792c1.091,-1.25034 2.743,-1.85862 4.354,-1.52336c14.34,2.98466 21.451,10.02494 26.027,24.65464c0.592,1.8915 0.109,3.9487 -1.185,5.4317l0,0c-1.641,1.8818 -4.729,0.9067 -5.213,-1.563c-2.754,-14.0339 -8.427,-19.6602 -21.697,-21.3014c-2.6952,-0.3333 -4.0877,-3.6337 -2.286,-5.69858l0,0z"/>
  </g>
  <path stroke="#007f3f" fill="none" id="svg_7" stroke-linecap="round" stroke-width="2.32792" d="m22.707,73.1807c5.4583,-8.4155 8.7015,-9.1341 15.8645,-0.6389c0.2118,0.2512 0.6282,0.1577 0.6964,-0.1636c0.7058,-3.3268 3.6159,-15.8663 7.4014,-15.9945c3.8065,-0.1289 8.2988,11.6883 9.6723,15.5751c0.1283,0.3634 0.6586,0.3405 0.7595,-0.0314l10.8795,-40.0985c0.1186,-0.4371 0.7625,-0.3514 0.7625,0.1016l0,59.3405c0,0.4533 0.6443,0.5388 0.7625,0.1012l4.8357,-17.9047c0.0457,-0.1692 0.1992,-0.2868 0.3745,-0.2868l9.1502,0c0.1891,0 -0.12929,-0.22499 0.3933,-0.3184c0.52259,-0.09341 4.99681,-13.88762 8.41,-9.998c3.41319,3.88962 7.38851,9.51528 7.8817,10.1916c0.49319,0.67632 -4.61093,-6.33154 0.151,0.2046c4.76193,6.53614 3.9227,4.2761 16.6,-0.0798"/>
 </g>
</svg>