<svg width="60" height="16" xmlns="http://www.w3.org/2000/svg" fill="none">

 <g>
  <title>Layer 1</title>
  <path id="svg_1" fill="#3a4157" d="m0,9.84621l0,-7.95267c0,-0.47337 0.19769,-0.94674 0.49423,-1.23077c0.29654,-0.37869 0.69193,-0.56804 1.28501,-0.56804c0.59308,0 0.98847,0.18935 1.28501,0.47337c0.29654,0.28402 0.49423,0.7574 0.49423,1.23077l0,8.33133c0,1.9882 1.08732,3.0296 3.26195,3.0296c2.17463,0 3.26197,-1.0414 3.26197,-3.0296l0,-8.23666c0,-0.47337 0.1977,-0.94674 0.4942,-1.23077c0.2965,-0.28402 0.7908,-0.47337 1.285,-0.47337c0.5931,0 0.9885,0.18935 1.285,0.47337c0.2966,0.28403 0.4943,0.7574 0.4943,1.23077l0,8.04734c0,1.98812 -0.5931,3.50292 -1.7793,4.54442c-1.1861,1.0414 -2.86654,1.5148 -5.04117,1.5148c-2.17463,0 -3.85503,-0.4734 -5.04119,-1.5148c-1.18616,-1.0415 -1.77924,-2.5563 -1.77924,-4.63909z"/>
  <path id="svg_2" fill="#3a4157" d="m16.5059,14.1066l0,-12.30773c0,-0.47337 0.1977,-0.94675 0.4942,-1.23077c0.2965,-0.28402 0.7908,-0.47337 1.285,-0.47337c0.5931,0 0.9885,0.18935 1.285,0.47337c0.2965,0.28402 0.4942,0.7574 0.4942,1.23077l0,5.01775l5.6343,-5.9645c0.2966,-0.28402 0.4942,-0.47337 0.6919,-0.56804c0.1977,-0.09468 0.4943,-0.18935 0.692,-0.18935c0.4942,0 0.8896,0.09467 1.1861,0.37869c0.2966,0.28403 0.4943,0.56805 0.4943,1.04142c0,0.3787 -0.1977,0.7574 -0.5931,1.1361l-3.6574,3.69231l4.3493,6.34315c0,0 0.0989,0.0947 0.0989,0.1894c0.0988,0.0947 0.0988,0.1893 0.0988,0.1893c0,0 0.0988,0.0947 0.0988,0.1894c0.0989,0.0947 0.0989,0.1893 0.0989,0.1893c0,0 0,0.0947 0.0988,0.1894c0.0989,0.0947 0.0989,0.1893 0.0989,0.1893c0,0.0947 0,0.0947 0,0.1894c0,0.284 -0.0989,0.568 -0.1977,0.7574c-0.0989,0.1893 -0.2965,0.3787 -0.3954,0.4734c-0.1977,0.0946 -0.3954,0.1893 -0.5931,0.284c-0.1977,0.0947 -0.3954,0.0947 -0.6919,0.0947c-0.3954,0 -0.6919,-0.0947 -0.8896,-0.1894c-0.1977,-0.0947 -0.4943,-0.3787 -0.692,-0.7574l-4.1515,-6.15384l-1.977,1.89354l0,3.4082c0,0.4734 -0.1976,0.9468 -0.4942,1.2308c-0.2965,0.284 -0.7908,0.4734 -1.285,0.4734c-0.5931,0 -0.9885,-0.1894 -1.285,-0.4734c-0.0988,0 -0.2965,-0.3787 -0.2965,-0.9467z"/>
  <path id="svg_3" fill="#3a4157" d="m30.3457,7.76331c0,-1.51479 0.2963,-2.84023 0.8889,-3.97633c0.5926,-1.13609 1.4815,-2.08284 2.7654,-2.74556c1.1852,-0.66272 2.6667,-1.04142 4.3457,-1.04142c1.284,0 2.3704,0.18935 3.4568,0.56805c0.9876,0.3787 1.8765,0.94674 2.5679,1.60946c0.6914,0.66273 1.1852,1.5148 1.4815,2.46154c0.395,0.94675 0.4938,1.98817 0.4938,3.12426c0,0.85208 -0.0988,1.70415 -0.2963,2.46159c-0.1975,0.7573 -0.4938,1.5147 -0.9876,2.2721c-0.4939,0.7574 -0.9877,1.3255 -1.5803,1.7989c-0.5926,0.4733 -1.3827,0.9467 -2.2716,1.2307c-0.8889,0.2841 -1.8765,0.4734 -2.8642,0.4734c-1.0864,0 -2.0741,-0.0947 -2.963,-0.3787c-0.8888,-0.284 -1.679,-0.6627 -2.2716,-1.1361c-0.5926,-0.4734 -1.0864,-1.0414 -1.5802,-1.7988c-0.3951,-0.6627 -0.6914,-1.4201 -0.8889,-2.2722c-0.1975,-0.85207 -0.2963,-1.70414 -0.2963,-2.65089zm3.5556,0c0,0.7574 0.0987,1.42012 0.1975,2.08284c0.0988,0.66275 0.3951,1.13605 0.6913,1.70415c0.2963,0.4734 0.7902,0.9467 1.3828,1.1361c0.5926,0.284 1.2839,0.3787 2.074,0.3787c0.5926,0 1.1852,-0.0947 1.679,-0.284c0.4939,-0.1894 0.8889,-0.4734 1.284,-0.7574c0.2963,-0.2841 0.5926,-0.7574 0.7901,-1.1361c0.1976,-0.3787 0.3951,-0.94677 0.4938,-1.42014c0.0988,-0.47338 0.0988,-1.04142 0.0988,-1.70415c0,-1.51479 -0.395,-2.74556 -1.0864,-3.59763c-0.7901,-0.94674 -1.8765,-1.32544 -3.2593,-1.32544c-0.9876,0 -1.7777,0.18935 -2.4691,0.66272c-0.6914,0.47337 -1.0864,0.94674 -1.3827,1.70414c-0.2963,0.7574 -0.4938,1.60947 -0.4938,2.55621z"/>
  <path id="svg_4" fill="#3a4157" d="m48.4355,13.5385l0,-11.64496c0,-0.47337 0.1977,-0.94674 0.4943,-1.23077c0.2965,-0.37869 0.7908,-0.56804 1.285,-0.56804c0.5931,0 0.9885,0.18935 1.285,0.47337c0.2965,0.28402 0.4942,0.7574 0.4942,1.23077l0,10.79293l6.1285,0c0.4943,0 0.9885,0.0946 1.3839,0.3787c0.3954,0.284 0.4942,0.6627 0.4942,1.0414c0,0.3787 -0.1977,0.8521 -0.4942,1.0414c-0.3954,0.284 -0.7908,0.3787 -1.3839,0.3787l-7.5123,0c-0.6919,0 -1.1862,-0.1893 -1.5816,-0.4734c-0.3954,-0.1893 -0.5931,-0.6627 -0.5931,-1.4201z"/>
  <path id="svg_5" fill="#3a4157" d="m59.3072,8.98711c-0.0989,0.09467 -0.1977,0.09467 -0.2966,0.09467c-0.0988,0 -0.1977,0 -0.2965,-0.09467c-0.0989,-0.09467 -0.0989,-0.18935 -0.0989,-0.28402c0,-0.09468 0,-0.18935 0.0989,-0.28403c0.0988,-0.09467 0.1977,-0.09467 0.2965,-0.09467c0.0989,0 0.1977,0 0.2966,0.09467c0.0988,0.09468 0.0988,0.18935 0.0988,0.28403c0,0.09467 0,0.18935 -0.0988,0.28402z"/>
  <path id="svg_6" fill="#3a4157" d="m59.0105,7.38495l-3.4596,0c-0.0989,0 -0.2966,0 -0.3954,-0.09467c-0.0989,-0.09468 -0.0989,-0.18935 -0.0989,-0.3787c0,-0.18935 0,-0.28403 0.0989,-0.3787c0.0988,-0.09467 0.1977,-0.09468 0.3954,-0.09468l1.3838,0l-1.6804,-1.42011l-0.012,-0.01257c-0.1191,-0.12384 -0.1857,-0.28899 -0.1857,-0.46081l0,0c0,-0.09467 0,-0.18935 0.0989,-0.28402c0.0988,-0.09467 0.1977,-0.09467 0.2965,-0.09467c0.0989,0 0.1977,0.09467 0.2966,0.18934l1.0873,0.94675l1.6959,-1.0829c0.0243,-0.01553 0.1533,-0.05319 0.1822,-0.05319l0,0l0.0988,0c0,0 0,0 0,0c0,0 0,0 0.0989,0c0.0988,0 0,0 0.0988,0c0,0 0,0 0.0989,0c0,0 0,0 0.0988,0c0.0206,0 0.0412,0 0.0608,0c0.0879,0 0.1723,0.03391 0.2357,0.09467l0,0c0,0 0.0989,0.09467 0.0989,0.18935c0,0.09467 0,0.09467 0,0.18935c0,0.09467 -0.0989,0.18935 -0.0989,0.18935c0,0 -0.0988,0.09467 -0.1977,0.18935l-1.6803,1.04142l0.4942,0.47337l0.9885,0c0.0988,0 0.2965,0 0.3953,0.09467c0.0989,0.09468 0.0989,0.18935 0.0989,0.3787l0,0c0,0.25994 -0.244,0.3787 -0.5039,0.3787c-0.0364,0 -0.0651,0 -0.0892,0z"/>
  <path id="svg_7" fill="#3a4157" d="m58.33329,3.59774l-2.57,-2.08284l0,1.60946c0,0.09468 0,0.28403 -0.0989,0.3787c-0.0988,0.09468 -0.1977,0.09468 -0.2965,0.09468c-0.0989,0 -0.1977,0 -0.2966,-0.09468c-0.0988,-0.09467 -0.0988,-0.28402 -0.0988,-0.3787l0,-2.46153c0,-0.28403 0.0988,-0.47338 0.3954,-0.47338c0.0988,0 0.2965,0 0.3954,0.09468l2.6688,2.17751l0,-1.79881c0,-0.09468 0,-0.28403 0.0989,-0.3787c0.0988,-0.09468 0.1977,-0.09468 0.2965,-0.09468c0.0989,0 0.1977,0 0.2966,0.09468c0.0988,0.09467 0.0988,0.18935 0.0988,0.3787l0,2.55621c0,0.18935 0,0.28402 -0.0988,0.3787c-0.0989,0.09467 -0.1977,0.09467 -0.3954,0.09467c0,0 -0.1977,0 -0.3954,-0.09467z"/>
 </g>
</svg>