<?xml version="1.0" encoding="utf-8"?>
<svg version="1.1" id="Слой_1" xmlns="http://www.w3.org/2000/svg" x="0px" y="0px" viewBox="26.956 0.44 60.844 20.66" style="enable-background:new 0 0 87.8 21.1;">
  <style type="text/css">
	.st0{fill:#43B676;}
</style>
  <g>
    <path class="st0" d="M18,3.1C13.9-1,7.2-1,3.1,3.1C-1,7.2-1,13.9,3.1,18c4.1,4.1,10.8,4.1,14.9,0C22.2,13.9,22.2,7.2,18,3.1z M15.9,5.7l-1.7,1.7l0.1,0.1c0.6,0.6,0.6,1.5,0,2l-5.2,5.2l0.4,0.4c0.1,0.1,0.1,0.3,0,0.4c-0.1,0.1-0.3,0.1-0.4,0L7.6,14l-1.5,1.5 l0.8,0.8c0.1,0.1,0.1,0.3,0,0.4c-0.1,0.1-0.3,0.1-0.4,0l-2-2c-0.1-0.1-0.1-0.3,0-0.4c0.1-0.1,0.3-0.1,0.4,0l0.8,0.8l1.5-1.5L5.6,12 c-0.1-0.1-0.1-0.3,0-0.4c0.1-0.1,0.3-0.1,0.4,0L6.4,12l5.2-5.2c0.6-0.6,1.5-0.6,2,0L13.7,7l1.7-1.7c0.1-0.1,0.3-0.1,0.4,0 C16,5.4,16,5.5,15.9,5.7z" style=""/>
    <g>
      <path class="st0" d="M27.2,12.8V4.4c0-0.5,0.2-1,0.5-1.3C28,2.7,28.4,2.5,29,2.5c0.6,0,1,0.2,1.3,0.5c0.3,0.3,0.5,0.8,0.5,1.3v8.8 c0,2.1,1.1,3.2,3.3,3.2s3.3-1.1,3.3-3.2V4.4c0-0.5,0.2-1,0.5-1.3c0.3-0.3,0.8-0.5,1.3-0.5c0.6,0,1,0.2,1.3,0.5s0.5,0.8,0.5,1.3 v8.5c0,2.1-0.6,3.7-1.8,4.8c-1.2,1.1-2.9,1.6-5.1,1.6c-2.2,0-3.9-0.5-5.1-1.6C27.8,16.6,27.2,15,27.2,12.8z" style="fill: rgb(136, 231, 136); stroke: rgb(0, 0, 0); vector-effect: non-scaling-stroke; stroke-width: 3px;"/>
      <path class="st0" d="M43.9,17.3v-13c0-0.5,0.2-1,0.5-1.3c0.3-0.3,0.8-0.5,1.3-0.5c0.6,0,1,0.2,1.3,0.5c0.3,0.3,0.5,0.8,0.5,1.3 v5.3l5.7-6.3c0.3-0.3,0.5-0.5,0.7-0.6s0.5-0.2,0.7-0.2c0.5,0,0.9,0.1,1.2,0.4s0.5,0.6,0.5,1.1c0,0.4-0.2,0.8-0.6,1.2l-3.7,3.9 l4.4,6.7c0,0,0.1,0.1,0.1,0.2c0.1,0.1,0.1,0.2,0.1,0.2s0.1,0.1,0.1,0.2c0.1,0.1,0.1,0.2,0.1,0.2s0,0.1,0.1,0.2s0.1,0.2,0.1,0.2 c0,0.1,0,0.1,0,0.2c0,0.3-0.1,0.6-0.2,0.8c-0.1,0.2-0.3,0.4-0.4,0.5c-0.2,0.1-0.4,0.2-0.6,0.3c-0.2,0.1-0.4,0.1-0.7,0.1 c-0.4,0-0.7-0.1-0.9-0.2c-0.2-0.1-0.5-0.4-0.7-0.8l-4.2-6.5l-2,2v3.6c0,0.5-0.2,1-0.5,1.3c-0.3,0.3-0.8,0.5-1.3,0.5 c-0.6,0-1-0.2-1.3-0.5C44.1,18.3,43.9,17.9,43.9,17.3z" style="fill: rgb(136, 231, 136); stroke: rgb(0, 0, 0); vector-effect: non-scaling-stroke; stroke-width: 3px;"/>
      <path class="st0" d="M57.9,10.6c0-1.6,0.3-3,0.9-4.2c0.6-1.2,1.5-2.2,2.8-2.9c1.2-0.7,2.7-1.1,4.4-1.1c1.3,0,2.4,0.2,3.5,0.6 c1,0.4,1.9,1,2.6,1.7c0.7,0.7,1.2,1.6,1.5,2.6c0.4,1,0.5,2.1,0.5,3.3c0,0.9-0.1,1.8-0.3,2.6s-0.5,1.6-1,2.4s-1,1.4-1.6,1.9 c-0.6,0.5-1.4,1-2.3,1.3c-0.9,0.3-1.9,0.5-2.9,0.5c-1.1,0-2.1-0.1-3-0.4c-0.9-0.3-1.7-0.7-2.3-1.2s-1.1-1.1-1.6-1.9 c-0.4-0.7-0.7-1.5-0.9-2.4C58,12.5,57.9,11.6,57.9,10.6z M61.5,10.6c0,0.8,0.1,1.5,0.2,2.2s0.4,1.2,0.7,1.8c0.3,0.5,0.8,1,1.4,1.2 c0.6,0.3,1.3,0.4,2.1,0.4c0.6,0,1.2-0.1,1.7-0.3c0.5-0.2,0.9-0.5,1.3-0.8c0.3-0.3,0.6-0.8,0.8-1.2s0.4-1,0.5-1.5 c0.1-0.5,0.1-1.1,0.1-1.8c0-1.6-0.4-2.9-1.1-3.8c-0.8-1-1.9-1.4-3.3-1.4c-1,0-1.8,0.2-2.5,0.7S62.3,7.1,62,7.9 C61.7,8.7,61.5,9.6,61.5,10.6z" style="fill: rgb(136, 231, 136); paint-order: fill; fill-rule: nonzero; stroke: rgb(0, 0, 0); vector-effect: non-scaling-stroke; stroke-width: 3px;"/>
      <path class="st0" d="M76.2,16.7V4.4c0-0.5,0.2-1,0.5-1.3C77,2.7,77.5,2.5,78,2.5c0.6,0,1,0.2,1.3,0.5c0.3,0.3,0.5,0.8,0.5,1.3 v11.4H86c0.5,0,1,0.1,1.4,0.4c0.4,0.3,0.5,0.7,0.5,1.1s-0.2,0.9-0.5,1.1c-0.4,0.3-0.8,0.4-1.4,0.4h-7.6c-0.7,0-1.2-0.2-1.6-0.5 C76.4,18,76.2,17.5,76.2,16.7z" style="fill: rgb(136, 231, 136); vector-effect: non-scaling-stroke; stroke: rgb(0, 0, 0); stroke-width: 3px;"/>
    </g>
    <g>
      <path class="st0" d="M87.2,11.7c-0.1,0.1-0.2,0.1-0.3,0.1s-0.2,0-0.3-0.1c-0.1-0.1-0.1-0.2-0.1-0.3s0-0.2,0.1-0.3 c0.1-0.1,0.2-0.1,0.3-0.1s0.2,0,0.3,0.1c0.1,0.1,0.1,0.2,0.1,0.3S87.3,11.6,87.2,11.7z" style="fill: rgb(136, 231, 136); stroke: rgb(0, 0, 0); vector-effect: non-scaling-stroke; stroke-width: 3px;"/>
      <path class="st0" d="M86.9,10.2h-3.5c-0.1,0-0.3,0-0.4-0.1c-0.1-0.1-0.1-0.2-0.1-0.4s0-0.3,0.1-0.4c0.1-0.1,0.2-0.1,0.4-0.1h1.4 l-1.7-1.5C83.1,7.6,83,7.5,83,7.4c0-0.1-0.1-0.1-0.1-0.2c0-0.1,0-0.2,0.1-0.3c0.1-0.1,0.2-0.1,0.3-0.1c0.1,0,0.2,0.1,0.3,0.2 l1.1,1l1.8-1.2c0,0,0,0,0.1,0c0,0,0.1,0,0.1,0s0,0,0.1,0s0,0,0.1,0s0,0,0,0s0,0,0.1,0c0,0,0,0,0.1,0c0.1,0,0.2,0,0.2,0 c0.1,0,0.1,0.1,0.1,0.1c0,0.1,0.1,0.1,0.1,0.2c0,0.1,0,0.1,0,0.2c0,0.1,0,0.2-0.1,0.2c0,0.1-0.1,0.1-0.2,0.2l-1.7,1.1l0.5,0.5h1 c0.1,0,0.3,0,0.4,0.1c0.1,0.1,0.1,0.2,0.1,0.4s0,0.3-0.1,0.4C87.1,10.1,87,10.2,86.9,10.2z" style="fill: rgb(136, 231, 136); stroke: rgb(0, 0, 0); vector-effect: non-scaling-stroke; stroke-width: 3px;"/>
      <path class="st0" d="M86.4,6.2L83.8,4v1.7c0,0.1,0,0.3-0.1,0.4c-0.1,0.1-0.2,0.1-0.3,0.1c-0.1,0-0.2,0-0.3-0.1C83,6,83,5.8,83,5.7 V3.1c0-0.3,0.1-0.5,0.4-0.5c0.1,0,0.3,0,0.4,0.1l2.7,2.3V3.1c0-0.1,0-0.3,0.1-0.4c0.1-0.1,0.2-0.1,0.3-0.1s0.2,0,0.3,0.1 c0.1,0.1,0.1,0.2,0.1,0.4v2.7c0,0.2,0,0.3-0.1,0.4c-0.1,0.1-0.2,0.1-0.4,0.1C86.7,6.4,86.6,6.3,86.4,6.2z" style="fill: rgb(136, 231, 136); vector-effect: non-scaling-stroke; stroke-width: 3px; stroke: rgb(0, 0, 0);"/>
    </g>
  </g>
</svg>