<?xml version="1.0" encoding="utf-8"?>
<svg width="100" height="140" viewBox="0 0 100 140" fill="none" xmlns="http://www.w3.org/2000/svg" style="filter: url(&quot;#gaussian-blur-filter-0&quot;);" xmlns:bx="https://boxy-svg.com">
  <g filter="url(#filter0_dii_570_7206)" transform="matrix(0.801561, -0.120185, 0.127969, 0.853474, -28.832903, 26.077551)" style="transform-origin: 68.0296px 19.4213px;">
    <path d="M51.2403 19.3775C51.2312 22.5492 52.2093 25.6522 54.0506 28.293C55.892 30.9339 58.5136 32.9938 61.5834 34.2115C64.6531 35.4293 68.0326 35.7503 71.2937 35.1336C74.5548 34.5169 77.5506 32.9905 79.9014 30.7477C82.2522 28.5049 83.8522 25.6467 84.4985 22.5355C85.1449 19.4242 84.8085 16.1999 83.5321 13.2712C82.2556 10.3425 80.0966 7.84134 77.3286 6.0846C74.5605 4.32787 71.3081 3.3947 67.9836 3.40338C63.5468 3.41496 59.2951 5.10166 56.1577 8.09487C53.0204 11.0881 51.2524 15.1444 51.2403 19.3775ZM69.6396 20.0357C69.6398 20.3342 69.5434 20.6254 69.3636 20.8695L72.4915 23.8537L71.6175 24.6875L68.3516 21.5278H68.0296C67.6026 21.5278 67.1932 21.366 66.8912 21.0779C66.5893 20.7899 66.4197 20.3992 66.4197 19.9918C66.429 19.718 66.515 19.4515 66.6687 19.22C66.8223 18.9885 67.0381 18.8004 67.2937 18.6753V8.01129H68.5356V18.5875C68.8809 18.6647 69.1898 18.8485 69.4144 19.1104C69.639 19.3722 69.7666 19.6975 69.7776 20.0357H69.6396Z" fill="#F0F0F5"/>
  </g>
  <g filter="url(#filter1_ii_570_7206)" style="" transform="matrix(0.719936, 0, 0, 0.768489, 11.08333, 32.803116)">
    <path d="M 100 56.153 C 100 43.426 94.296 33.069 87.259 33.069 C 80.221 33.069 74.517 43.426 74.517 56.153 C 74.517 65.851 77.829 74.145 82.521 77.525 L 82.521 79.807 C 82.442 80.462 82.632 81.122 83.053 81.646 C 83.473 82.17 84.091 82.517 84.775 82.615 L 85.051 82.615 L 85.051 121.278 C 85.165 123.997 84.176 126.653 82.291 128.694 C 80.37 130.339 78.107 131.58 75.65 132.336 C 73.194 133.092 70.598 133.347 68.031 133.083 L 67.433 133.083 C 69.578 129.378 70.492 125.139 70.055 120.927 L 70.055 38.686 C 75.233 38.164 80.003 35.766 83.383 31.987 C 86.763 28.208 88.494 23.336 88.219 18.375 C 87.945 13.415 85.686 8.743 81.909 5.325 C 78.131 1.906 73.123 0 67.916 0 C 62.71 0 57.701 1.906 53.924 5.325 C 50.146 8.743 47.888 13.415 47.613 18.375 C 47.339 23.336 49.07 28.208 52.45 31.987 C 55.829 35.766 60.6 38.164 65.777 38.686 L 65.777 121.322 C 66.218 125.279 65.103 129.251 62.65 132.468 L 62.42 132.468 C 59.154 132.084 56.113 130.68 53.772 128.475 C 51.83 126.37 50.795 123.642 50.874 120.839 L 50.874 112.764 L 52.116 112.764 C 53.487 112.764 54.802 112.248 55.775 111.327 C 56.749 110.407 57.302 109.157 57.314 107.849 L 57.314 42.022 C 57.302 40.714 56.749 39.464 55.775 38.544 C 54.802 37.623 53.487 37.107 52.116 37.107 L 44.02 37.107 L 44.02 112.764 L 46.642 112.764 L 46.642 120.795 C 46.457 124.679 47.877 128.477 50.598 131.371 C 52.377 133.208 54.582 134.621 57.038 135.496 C 55.77 135.767 54.473 135.9 53.174 135.891 C 51.414 136.018 49.647 135.778 47.994 135.187 C 46.342 134.596 44.844 133.668 43.606 132.468 C 41.079 129.194 39.886 125.154 40.248 121.102 L 40.248 112.764 L 39.696 112.764 L 39.696 37.107 L 5.198 37.107 C 3.827 37.107 2.512 37.623 1.539 38.544 C 0.565 39.464 0.012 40.714 0 42.022 L 0 107.849 C 0.012 109.157 0.565 110.407 1.539 111.327 C 2.512 112.248 3.827 112.764 5.198 112.764 L 35.971 112.764 L 35.971 120.795 C 35.535 125.976 37.179 131.121 40.57 135.189 C 42.212 136.822 44.205 138.096 46.413 138.922 C 48.621 139.748 50.991 140.106 53.358 139.973 C 57.138 140.1 60.862 139.07 63.983 137.032 C 65.405 137.176 66.832 137.249 68.261 137.252 C 71.453 137.516 74.667 137.128 77.689 136.114 C 80.711 135.1 83.471 133.483 85.787 131.371 C 88.404 128.499 89.755 124.772 89.558 120.971 L 89.558 82.615 L 89.926 82.615 C 90.61 82.517 91.228 82.17 91.648 81.646 C 92.069 81.122 92.26 80.462 92.18 79.807 L 92.18 77.525 C 96.596 74.145 100 65.807 100 56.153 Z M 51.242 19.377 C 51.242 16.207 52.228 13.109 54.075 10.474 C 55.922 7.838 58.546 5.785 61.617 4.574 C 64.688 3.363 68.066 3.049 71.324 3.67 C 74.582 4.292 77.573 5.822 79.919 8.066 C 82.266 10.311 83.861 13.169 84.504 16.279 C 85.146 19.389 84.807 22.611 83.529 25.537 C 82.252 28.464 80.093 30.962 77.325 32.717 C 74.558 34.472 71.308 35.404 67.985 35.395 C 65.783 35.395 63.602 34.981 61.567 34.175 C 59.533 33.369 57.685 32.189 56.13 30.701 C 54.574 29.213 53.342 27.447 52.503 25.504 C 51.665 23.561 51.236 21.479 51.242 19.377 Z" fill="#038677" style="transform-box: fill-box; transform-origin: 50% 50%;" transform="matrix(0.874586, -0.48487, 0.48487, 0.874586, 0.000001, -0.000003)"/>
  </g>
  <g filter="url(#filter2_dii_570_7206)" transform="matrix(1, 0, 0, 1, -27.929399, 26.48735)">
    <path d="M67.4345 8.01074V18.7186C67.179 18.8438 66.9632 19.0318 66.8095 19.2633C66.6559 19.4948 66.5699 19.7613 66.5605 20.0352C66.5605 20.4425 66.7302 20.8332 67.0321 21.1213C67.334 21.4093 67.7435 21.5712 68.1705 21.5712H68.4925L71.7583 24.7309L72.6323 23.897L69.5044 20.9129C69.6843 20.6687 69.7807 20.3775 69.7804 20.0791C69.7782 19.7579 69.6706 19.4454 69.4725 19.1856C69.2745 18.9258 68.9961 18.7318 68.6765 18.6309V8.01074H67.4345Z" fill="#00AEEF"/>
  </g>
  <g filter="url(#filter3_dii_570_7206)" style="" transform="matrix(0.764216, 0, 0.320902, 0.629143, -13.089699, 44.540527)">
    <path d="M40.2492 112.764H44.0211V37.1064H39.6973V112.764H40.2492Z" fill="#F0F0F5"/>
  </g>
  <defs>
    <filter id="filter0_dii_570_7206" x="49.2402" y="-4.59668" width="49.5781" height="54.0359" filterUnits="userSpaceOnUse" color-interpolation-filters="sRGB">
      <feFlood flood-opacity="0" result="BackgroundImageFix"/>
      <feColorMatrix in="SourceAlpha" type="matrix" values="0 0 0 0 0 0 0 0 0 0 0 0 0 0 0 0 0 0 127 0" result="hardAlpha"/>
      <feOffset dx="6" dy="6"/>
      <feGaussianBlur stdDeviation="4"/>
      <feComposite in2="hardAlpha" operator="out"/>
      <feColorMatrix type="matrix" values="0 0 0 0 0.298039 0 0 0 0 0.631373 0 0 0 0 0.482353 0 0 0 0.1 0"/>
      <feBlend mode="normal" in2="BackgroundImageFix" result="effect1_dropShadow_570_7206"/>
      <feBlend mode="normal" in="SourceGraphic" in2="effect1_dropShadow_570_7206" result="shape"/>
      <feColorMatrix in="SourceAlpha" type="matrix" values="0 0 0 0 0 0 0 0 0 0 0 0 0 0 0 0 0 0 127 0" result="hardAlpha"/>
      <feOffset dx="-1" dy="-13"/>
      <feGaussianBlur stdDeviation="4"/>
      <feComposite in2="hardAlpha" operator="arithmetic" k2="-1" k3="1"/>
      <feColorMatrix type="matrix" values="0 0 0 0 0.294118 0 0 0 0 0.647059 0 0 0 0 0.490196 0 0 0 0.5 0"/>
      <feBlend mode="normal" in2="shape" result="effect2_innerShadow_570_7206"/>
      <feColorMatrix in="SourceAlpha" type="matrix" values="0 0 0 0 0 0 0 0 0 0 0 0 0 0 0 0 0 0 127 0" result="hardAlpha"/>
      <feOffset dx="-2" dy="5"/>
      <feGaussianBlur stdDeviation="6.5"/>
      <feComposite in2="hardAlpha" operator="arithmetic" k2="-1" k3="1"/>
      <feColorMatrix type="matrix" values="0 0 0 0 0 0 0 0 0 0.316667 0 0 0 0 0.174921 0 0 0 0.2 0"/>
      <feBlend mode="normal" in2="effect2_innerShadow_570_7206" result="effect3_innerShadow_570_7206"/>
    </filter>
    <filter id="filter1_ii_570_7206" x="-9" y="-9" width="124" height="165" filterUnits="userSpaceOnUse" color-interpolation-filters="sRGB">
      <feFlood flood-opacity="0" result="BackgroundImageFix"/>
      <feBlend mode="normal" in="SourceGraphic" in2="BackgroundImageFix" result="shape"/>
      <feColorMatrix in="SourceAlpha" type="matrix" values="0 0 0 0 0 0 0 0 0 0 0 0 0 0 0 0 0 0 127 0" result="hardAlpha"/>
      <feOffset dx="-10" dy="-11"/>
      <feGaussianBlur stdDeviation="4.5"/>
      <feComposite in2="hardAlpha" operator="arithmetic" k2="-1" k3="1"/>
      <feColorMatrix type="matrix" values="0 0 0 0 0.0235294 0 0 0 0 0.478431 0 0 0 0 0.27451 0 0 0 0.5 0"/>
      <feBlend mode="normal" in2="shape" result="effect1_innerShadow_570_7206"/>
      <feColorMatrix in="SourceAlpha" type="matrix" values="0 0 0 0 0 0 0 0 0 0 0 0 0 0 0 0 0 0 127 0" result="hardAlpha"/>
      <feOffset dx="15" dy="16"/>
      <feGaussianBlur stdDeviation="9.5"/>
      <feComposite in2="hardAlpha" operator="arithmetic" k2="-1" k3="1"/>
      <feColorMatrix type="matrix" values="0 0 0 0 0.0235294 0 0 0 0 0.478431 0 0 0 0 0.27451 0 0 0 0.4 0"/>
      <feBlend mode="normal" in2="effect1_innerShadow_570_7206" result="effect2_innerShadow_570_7206"/>
    </filter>
    <filter id="filter2_dii_570_7206" x="64.5605" y="0.0107422" width="22.0723" height="38.7201" filterUnits="userSpaceOnUse" color-interpolation-filters="sRGB">
      <feFlood flood-opacity="0" result="BackgroundImageFix"/>
      <feColorMatrix in="SourceAlpha" type="matrix" values="0 0 0 0 0 0 0 0 0 0 0 0 0 0 0 0 0 0 127 0" result="hardAlpha"/>
      <feOffset dx="6" dy="6"/>
      <feGaussianBlur stdDeviation="4"/>
      <feComposite in2="hardAlpha" operator="out"/>
      <feColorMatrix type="matrix" values="0 0 0 0 0.298039 0 0 0 0 0.631373 0 0 0 0 0.482353 0 0 0 0.4 0"/>
      <feBlend mode="normal" in2="BackgroundImageFix" result="effect1_dropShadow_570_7206"/>
      <feBlend mode="normal" in="SourceGraphic" in2="effect1_dropShadow_570_7206" result="shape"/>
      <feColorMatrix in="SourceAlpha" type="matrix" values="0 0 0 0 0 0 0 0 0 0 0 0 0 0 0 0 0 0 127 0" result="hardAlpha"/>
      <feOffset dx="-1" dy="-13"/>
      <feGaussianBlur stdDeviation="4"/>
      <feComposite in2="hardAlpha" operator="arithmetic" k2="-1" k3="1"/>
      <feColorMatrix type="matrix" values="0 0 0 0 0.294118 0 0 0 0 0.647059 0 0 0 0 0.490196 0 0 0 1 0"/>
      <feBlend mode="normal" in2="shape" result="effect2_innerShadow_570_7206"/>
      <feColorMatrix in="SourceAlpha" type="matrix" values="0 0 0 0 0 0 0 0 0 0 0 0 0 0 0 0 0 0 127 0" result="hardAlpha"/>
      <feOffset dx="-2" dy="5"/>
      <feGaussianBlur stdDeviation="6.5"/>
      <feComposite in2="hardAlpha" operator="arithmetic" k2="-1" k3="1"/>
      <feColorMatrix type="matrix" values="0 0 0 0 0 0 0 0 0 0.316667 0 0 0 0 0.174921 0 0 0 1 0"/>
      <feBlend mode="normal" in2="effect2_innerShadow_570_7206" result="effect3_innerShadow_570_7206"/>
    </filter>
    <filter id="filter3_dii_570_7206" x="37.6973" y="29.1064" width="20.3242" height="97.6575" filterUnits="userSpaceOnUse" color-interpolation-filters="sRGB">
      <feFlood flood-opacity="0" result="BackgroundImageFix"/>
      <feColorMatrix in="SourceAlpha" type="matrix" values="0 0 0 0 0 0 0 0 0 0 0 0 0 0 0 0 0 0 127 0" result="hardAlpha"/>
      <feOffset dx="6" dy="6"/>
      <feGaussianBlur stdDeviation="4"/>
      <feComposite in2="hardAlpha" operator="out"/>
      <feColorMatrix type="matrix" values="0 0 0 0 0.298039 0 0 0 0 0.631373 0 0 0 0 0.482353 0 0 0 0.4 0"/>
      <feBlend mode="normal" in2="BackgroundImageFix" result="effect1_dropShadow_570_7206"/>
      <feBlend mode="normal" in="SourceGraphic" in2="effect1_dropShadow_570_7206" result="shape"/>
      <feColorMatrix in="SourceAlpha" type="matrix" values="0 0 0 0 0 0 0 0 0 0 0 0 0 0 0 0 0 0 127 0" result="hardAlpha"/>
      <feOffset dx="-1" dy="-13"/>
      <feGaussianBlur stdDeviation="4"/>
      <feComposite in2="hardAlpha" operator="arithmetic" k2="-1" k3="1"/>
      <feColorMatrix type="matrix" values="0 0 0 0 0.294118 0 0 0 0 0.647059 0 0 0 0 0.490196 0 0 0 1 0"/>
      <feBlend mode="normal" in2="shape" result="effect2_innerShadow_570_7206"/>
      <feColorMatrix in="SourceAlpha" type="matrix" values="0 0 0 0 0 0 0 0 0 0 0 0 0 0 0 0 0 0 127 0" result="hardAlpha"/>
      <feOffset dx="-2" dy="5"/>
      <feGaussianBlur stdDeviation="6.5"/>
      <feComposite in2="hardAlpha" operator="arithmetic" k2="-1" k3="1"/>
      <feColorMatrix type="matrix" values="0 0 0 0 0 0 0 0 0 0.316667 0 0 0 0 0.174921 0 0 0 1 0"/>
      <feBlend mode="normal" in2="effect2_innerShadow_570_7206" result="effect3_innerShadow_570_7206"/>
    </filter>
    <filter id="gaussian-blur-filter-0" bx:preset="gaussian-blur 1 2.3" color-interpolation-filters="sRGB" x="-50%" y="-50%" width="200%" height="200%">
      <feGaussianBlur stdDeviation="2.3 2.3" edgeMode="none"/>
    </filter>
  </defs>
</svg>