<?xml version="1.0" encoding="utf-8"?>
<svg width="100" height="140" viewBox="0 0 100 140" fill="none" xmlns="http://www.w3.org/2000/svg" style="filter: url(&quot;#gaussian-blur-filter-0&quot;);" xmlns:bx="https://boxy-svg.com">
  <g filter="url(#filter0_dii_570_7206)">
    <path d="M51.2403 19.3775C51.2312 22.5492 52.2093 25.6522 54.0506 28.293C55.892 30.9339 58.5136 32.9938 61.5834 34.2115C64.6531 35.4293 68.0326 35.7503 71.2937 35.1336C74.5548 34.5169 77.5506 32.9905 79.9014 30.7477C82.2522 28.5049 83.8522 25.6467 84.4985 22.5355C85.1449 19.4242 84.8085 16.1999 83.5321 13.2712C82.2556 10.3425 80.0966 7.84134 77.3286 6.0846C74.5605 4.32787 71.3081 3.3947 67.9836 3.40338C63.5468 3.41496 59.2951 5.10166 56.1577 8.09487C53.0204 11.0881 51.2524 15.1444 51.2403 19.3775ZM69.6396 20.0357C69.6398 20.3342 69.5434 20.6254 69.3636 20.8695L72.4915 23.8537L71.6175 24.6875L68.3516 21.5278H68.0296C67.6026 21.5278 67.1932 21.366 66.8912 21.0779C66.5893 20.7899 66.4197 20.3992 66.4197 19.9918C66.429 19.718 66.515 19.4515 66.6687 19.22C66.8223 18.9885 67.0381 18.8004 67.2937 18.6753V8.01129H68.5356V18.5875C68.8809 18.6647 69.1898 18.8485 69.4144 19.1104C69.639 19.3722 69.7666 19.6975 69.7776 20.0357H69.6396Z" fill="#F0F0F5"/>
  </g>
  <g filter="url(#filter1_ii_570_7206)">
    <path d="M100 56.1527C100 43.4261 94.2962 33.0693 87.2585 33.0693C80.2208 33.0693 74.517 43.4261 74.517 56.1527C74.517 65.8512 77.8289 74.1455 82.5207 77.5246V79.8066C82.4415 80.4622 82.6322 81.1215 83.0527 81.6455C83.4732 82.1695 84.0906 82.5172 84.7746 82.6152H85.0506V121.278C85.1649 123.997 84.1764 126.653 82.2907 128.694C80.3695 130.339 78.1071 131.58 75.6504 132.336C73.1937 133.092 70.5978 133.347 68.0313 133.083H67.4333C69.5779 129.378 70.4922 125.139 70.0552 120.927V38.6865C75.2331 38.1639 80.0034 35.766 83.383 31.987C86.7625 28.208 88.4935 23.336 88.2192 18.3753C87.945 13.4147 85.6863 8.7435 81.9088 5.32467C78.1314 1.90585 73.123 0 67.9163 0C62.7095 0 57.7012 1.90585 53.9237 5.32467C50.1463 8.7435 47.8876 13.4147 47.6133 18.3753C47.3391 23.336 49.0701 28.208 52.4496 31.987C55.8291 35.766 60.5995 38.1639 65.7774 38.6865V121.322C66.218 125.279 65.1034 129.251 62.6495 132.468H62.4195C59.1539 132.084 56.1133 130.68 53.7718 128.475C51.8298 126.37 50.7946 123.642 50.874 120.839V112.764H52.1159C53.4865 112.764 54.8017 112.248 55.7751 111.327C56.7486 110.407 57.3016 109.157 57.3137 107.849V42.0218C57.3016 40.7142 56.7486 39.4641 55.7751 38.5436C54.8017 37.6231 53.4865 37.1066 52.1159 37.1067H44.0202V112.764H46.6421V120.795C46.457 124.679 47.8775 128.477 50.598 131.371C52.3765 133.208 54.5823 134.621 57.0377 135.496C55.7696 135.767 54.4733 135.9 53.1739 135.891C51.4142 136.018 49.6467 135.778 47.9943 135.187C46.342 134.596 44.8445 133.668 43.6063 132.468C41.079 129.194 39.8856 125.154 40.2484 121.102V112.764H39.6964V37.1067H5.19779C3.82718 37.1066 2.51203 37.6231 1.53857 38.5436C0.565102 39.4641 0.0121293 40.7142 0 42.0218L0 107.849C0.0121293 109.157 0.565102 110.407 1.53857 111.327C2.51203 112.248 3.82718 112.764 5.19779 112.764H35.9706V120.795C35.5352 125.976 37.1794 131.121 40.5704 135.189C42.2116 136.822 44.2052 138.096 46.413 138.922C48.6209 139.748 50.9905 140.106 53.3579 139.973C57.138 140.1 60.8616 139.07 63.9834 137.032C65.4045 137.176 66.8323 137.249 68.2613 137.252C71.4527 137.516 74.6665 137.128 77.6885 136.114C80.7105 135.1 83.4712 133.483 85.7866 131.371C88.4037 128.499 89.7552 124.772 89.5584 120.971V82.6152H89.9264C90.6104 82.5172 91.2278 82.1695 91.6483 81.6455C92.0688 81.1215 92.2595 80.4622 92.1803 79.8066V77.5246C96.5961 74.1455 100 65.8074 100 56.1527ZM51.242 19.3772C51.242 16.2073 52.2278 13.1087 54.0747 10.4736C55.9216 7.83849 58.5464 5.78546 61.6169 4.5744C64.6875 3.36334 68.0656 3.04871 71.3237 3.67033C74.5817 4.29195 77.5732 5.82188 79.9194 8.06642C82.2656 10.311 83.861 13.1692 84.5036 16.2793C85.1462 19.3893 84.8071 22.6114 83.5293 25.5375C82.2515 28.4636 80.0925 30.9622 77.3254 32.717C74.5584 34.4718 71.3078 35.4039 67.9853 35.3952C65.7826 35.3952 63.6016 34.9806 61.5672 34.175C59.5328 33.3695 57.685 32.189 56.1297 30.701C54.5743 29.213 53.342 27.4468 52.5032 25.5037C51.6645 23.5606 51.2359 21.4787 51.242 19.3772Z" fill="#038677"/>
  </g>
  <g filter="url(#filter2_dii_570_7206)">
    <path d="M67.4345 8.01074V18.7186C67.179 18.8438 66.9632 19.0318 66.8095 19.2633C66.6559 19.4948 66.5699 19.7613 66.5605 20.0352C66.5605 20.4425 66.7302 20.8332 67.0321 21.1213C67.334 21.4093 67.7435 21.5712 68.1705 21.5712H68.4925L71.7583 24.7309L72.6323 23.897L69.5044 20.9129C69.6843 20.6687 69.7807 20.3775 69.7804 20.0791C69.7782 19.7579 69.6706 19.4454 69.4725 19.1856C69.2745 18.9258 68.9961 18.7318 68.6765 18.6309V8.01074H67.4345Z" fill="#00AEEF"/>
  </g>
  <g filter="url(#filter3_dii_570_7206)">
    <path d="M40.2492 112.764H44.0211V37.1064H39.6973V112.764H40.2492Z" fill="#F0F0F5"/>
  </g>
  <defs>
    <filter id="filter0_dii_570_7206" x="49.2402" y="-4.59668" width="49.5781" height="54.0359" filterUnits="userSpaceOnUse" color-interpolation-filters="sRGB">
      <feFlood flood-opacity="0" result="BackgroundImageFix"/>
      <feColorMatrix in="SourceAlpha" type="matrix" values="0 0 0 0 0 0 0 0 0 0 0 0 0 0 0 0 0 0 127 0" result="hardAlpha"/>
      <feOffset dx="6" dy="6"/>
      <feGaussianBlur stdDeviation="4"/>
      <feComposite in2="hardAlpha" operator="out"/>
      <feColorMatrix type="matrix" values="0 0 0 0 0.298039 0 0 0 0 0.631373 0 0 0 0 0.482353 0 0 0 0.1 0"/>
      <feBlend mode="normal" in2="BackgroundImageFix" result="effect1_dropShadow_570_7206"/>
      <feBlend mode="normal" in="SourceGraphic" in2="effect1_dropShadow_570_7206" result="shape"/>
      <feColorMatrix in="SourceAlpha" type="matrix" values="0 0 0 0 0 0 0 0 0 0 0 0 0 0 0 0 0 0 127 0" result="hardAlpha"/>
      <feOffset dx="-1" dy="-13"/>
      <feGaussianBlur stdDeviation="4"/>
      <feComposite in2="hardAlpha" operator="arithmetic" k2="-1" k3="1"/>
      <feColorMatrix type="matrix" values="0 0 0 0 0.294118 0 0 0 0 0.647059 0 0 0 0 0.490196 0 0 0 0.5 0"/>
      <feBlend mode="normal" in2="shape" result="effect2_innerShadow_570_7206"/>
      <feColorMatrix in="SourceAlpha" type="matrix" values="0 0 0 0 0 0 0 0 0 0 0 0 0 0 0 0 0 0 127 0" result="hardAlpha"/>
      <feOffset dx="-2" dy="5"/>
      <feGaussianBlur stdDeviation="6.5"/>
      <feComposite in2="hardAlpha" operator="arithmetic" k2="-1" k3="1"/>
      <feColorMatrix type="matrix" values="0 0 0 0 0 0 0 0 0 0.316667 0 0 0 0 0.174921 0 0 0 0.2 0"/>
      <feBlend mode="normal" in2="effect2_innerShadow_570_7206" result="effect3_innerShadow_570_7206"/>
    </filter>
    <filter id="filter1_ii_570_7206" x="-9" y="-9" width="124" height="165" filterUnits="userSpaceOnUse" color-interpolation-filters="sRGB">
      <feFlood flood-opacity="0" result="BackgroundImageFix"/>
      <feBlend mode="normal" in="SourceGraphic" in2="BackgroundImageFix" result="shape"/>
      <feColorMatrix in="SourceAlpha" type="matrix" values="0 0 0 0 0 0 0 0 0 0 0 0 0 0 0 0 0 0 127 0" result="hardAlpha"/>
      <feOffset dx="-10" dy="-11"/>
      <feGaussianBlur stdDeviation="4.5"/>
      <feComposite in2="hardAlpha" operator="arithmetic" k2="-1" k3="1"/>
      <feColorMatrix type="matrix" values="0 0 0 0 0.0235294 0 0 0 0 0.478431 0 0 0 0 0.27451 0 0 0 0.5 0"/>
      <feBlend mode="normal" in2="shape" result="effect1_innerShadow_570_7206"/>
      <feColorMatrix in="SourceAlpha" type="matrix" values="0 0 0 0 0 0 0 0 0 0 0 0 0 0 0 0 0 0 127 0" result="hardAlpha"/>
      <feOffset dx="15" dy="16"/>
      <feGaussianBlur stdDeviation="9.5"/>
      <feComposite in2="hardAlpha" operator="arithmetic" k2="-1" k3="1"/>
      <feColorMatrix type="matrix" values="0 0 0 0 0.0235294 0 0 0 0 0.478431 0 0 0 0 0.27451 0 0 0 0.4 0"/>
      <feBlend mode="normal" in2="effect1_innerShadow_570_7206" result="effect2_innerShadow_570_7206"/>
    </filter>
    <filter id="filter2_dii_570_7206" x="64.5605" y="0.0107422" width="22.0723" height="38.7201" filterUnits="userSpaceOnUse" color-interpolation-filters="sRGB">
      <feFlood flood-opacity="0" result="BackgroundImageFix"/>
      <feColorMatrix in="SourceAlpha" type="matrix" values="0 0 0 0 0 0 0 0 0 0 0 0 0 0 0 0 0 0 127 0" result="hardAlpha"/>
      <feOffset dx="6" dy="6"/>
      <feGaussianBlur stdDeviation="4"/>
      <feComposite in2="hardAlpha" operator="out"/>
      <feColorMatrix type="matrix" values="0 0 0 0 0.298039 0 0 0 0 0.631373 0 0 0 0 0.482353 0 0 0 0.4 0"/>
      <feBlend mode="normal" in2="BackgroundImageFix" result="effect1_dropShadow_570_7206"/>
      <feBlend mode="normal" in="SourceGraphic" in2="effect1_dropShadow_570_7206" result="shape"/>
      <feColorMatrix in="SourceAlpha" type="matrix" values="0 0 0 0 0 0 0 0 0 0 0 0 0 0 0 0 0 0 127 0" result="hardAlpha"/>
      <feOffset dx="-1" dy="-13"/>
      <feGaussianBlur stdDeviation="4"/>
      <feComposite in2="hardAlpha" operator="arithmetic" k2="-1" k3="1"/>
      <feColorMatrix type="matrix" values="0 0 0 0 0.294118 0 0 0 0 0.647059 0 0 0 0 0.490196 0 0 0 1 0"/>
      <feBlend mode="normal" in2="shape" result="effect2_innerShadow_570_7206"/>
      <feColorMatrix in="SourceAlpha" type="matrix" values="0 0 0 0 0 0 0 0 0 0 0 0 0 0 0 0 0 0 127 0" result="hardAlpha"/>
      <feOffset dx="-2" dy="5"/>
      <feGaussianBlur stdDeviation="6.5"/>
      <feComposite in2="hardAlpha" operator="arithmetic" k2="-1" k3="1"/>
      <feColorMatrix type="matrix" values="0 0 0 0 0 0 0 0 0 0.316667 0 0 0 0 0.174921 0 0 0 1 0"/>
      <feBlend mode="normal" in2="effect2_innerShadow_570_7206" result="effect3_innerShadow_570_7206"/>
    </filter>
    <filter id="filter3_dii_570_7206" x="37.6973" y="29.1064" width="20.3242" height="97.6575" filterUnits="userSpaceOnUse" color-interpolation-filters="sRGB">
      <feFlood flood-opacity="0" result="BackgroundImageFix"/>
      <feColorMatrix in="SourceAlpha" type="matrix" values="0 0 0 0 0 0 0 0 0 0 0 0 0 0 0 0 0 0 127 0" result="hardAlpha"/>
      <feOffset dx="6" dy="6"/>
      <feGaussianBlur stdDeviation="4"/>
      <feComposite in2="hardAlpha" operator="out"/>
      <feColorMatrix type="matrix" values="0 0 0 0 0.298039 0 0 0 0 0.631373 0 0 0 0 0.482353 0 0 0 0.4 0"/>
      <feBlend mode="normal" in2="BackgroundImageFix" result="effect1_dropShadow_570_7206"/>
      <feBlend mode="normal" in="SourceGraphic" in2="effect1_dropShadow_570_7206" result="shape"/>
      <feColorMatrix in="SourceAlpha" type="matrix" values="0 0 0 0 0 0 0 0 0 0 0 0 0 0 0 0 0 0 127 0" result="hardAlpha"/>
      <feOffset dx="-1" dy="-13"/>
      <feGaussianBlur stdDeviation="4"/>
      <feComposite in2="hardAlpha" operator="arithmetic" k2="-1" k3="1"/>
      <feColorMatrix type="matrix" values="0 0 0 0 0.294118 0 0 0 0 0.647059 0 0 0 0 0.490196 0 0 0 1 0"/>
      <feBlend mode="normal" in2="shape" result="effect2_innerShadow_570_7206"/>
      <feColorMatrix in="SourceAlpha" type="matrix" values="0 0 0 0 0 0 0 0 0 0 0 0 0 0 0 0 0 0 127 0" result="hardAlpha"/>
      <feOffset dx="-2" dy="5"/>
      <feGaussianBlur stdDeviation="6.5"/>
      <feComposite in2="hardAlpha" operator="arithmetic" k2="-1" k3="1"/>
      <feColorMatrix type="matrix" values="0 0 0 0 0 0 0 0 0 0.316667 0 0 0 0 0.174921 0 0 0 1 0"/>
      <feBlend mode="normal" in2="effect2_innerShadow_570_7206" result="effect3_innerShadow_570_7206"/>
    </filter>
    <filter id="gaussian-blur-filter-0" bx:preset="gaussian-blur 1 1.9" color-interpolation-filters="sRGB" x="-50%" y="-50%" width="200%" height="200%">
      <feGaussianBlur stdDeviation="1.9 1.9" edgeMode="none"/>
    </filter>
  </defs>
</svg>